<svg xmlns="http://www.w3.org/2000/svg" viewBox="0 0 200 200"><defs><style>.cls-1{opacity:0.35;}.cls-2{fill:#e6e6e6;}.cls-3{fill:#11a96a;}</style></defs><title>资源 2</title><g id="图层_2" data-name="图层 2"><g id="图层_1-2" data-name="图层 1"><g class="cls-1"><rect class="cls-2" width="52.17" height="52.94" rx="1.5" ry="1.5"/><rect class="cls-2" x="73.91" width="52.17" height="52.94" rx="1.5" ry="1.5"/><rect class="cls-2" x="147.83" width="52.17" height="52.94" rx="1.5" ry="1.5"/><rect class="cls-2" y="73.53" width="52.17" height="52.94" rx="1.5" ry="1.5"/><rect class="cls-2" x="73.91" y="73.53" width="52.17" height="52.94" rx="1.5" ry="1.5"/><rect class="cls-2" x="147.83" y="73.53" width="52.17" height="52.94" rx="1.5" ry="1.5"/><rect class="cls-2" y="147.06" width="52.17" height="52.94" rx="1.5" ry="1.5"/><rect class="cls-2" x="73.91" y="147.06" width="52.17" height="52.94" rx="1.5" ry="1.5"/><rect class="cls-2" x="147.83" y="147.06" width="52.17" height="52.94" rx="1.5" ry="1.5"/></g><path d="M170.24,162.26a87.39,87.39,0,0,0,6.28-7.12,5.85,5.85,0,0,0-.42-7.7h0a5.64,5.64,0,0,0-8.48.52,76.19,76.19,0,0,1-5.43,6.14,74.93,74.93,0,0,1-106.7.22c-29.25-29.93-29.18-78.43.23-108.26a74.89,74.89,0,0,1,102.67-4,.13.13,0,0,1-.08.23H137.37a1.47,1.47,0,0,0-1.46,1.48v8.6a1.46,1.46,0,0,0,1.46,1.47H175.8a1.46,1.46,0,0,0,1.45-1.47v-39a1.46,1.46,0,0,0-1.45-1.47h-8.48a1.46,1.46,0,0,0-1.45,1.47V33.11a.13.13,0,0,1-.21.09,86.17,86.17,0,0,0-118,4.69c-33.77,34.26-33.91,89.9-.45,124.36h0c.08.08.16.15.23.23l.23.24h0A86.2,86.2,0,0,0,170.24,162.26Z"/><path class="cls-3" d="M177.25,13.4a1.46,1.46,0,0,0-1.45-1.47h-8.48a1.46,1.46,0,0,0-1.45,1.47V33.11l-.21.09A86.19,86.19,0,0,0,73.79,19.69a5.84,5.84,0,0,0-1.63,9.38h0a5.72,5.72,0,0,0,6.46,1.14,74.82,74.82,0,0,1,79.77,11.88l-.08.23H137.37a1.47,1.47,0,0,0-1.46,1.48v8.6a1.46,1.46,0,0,0,1.46,1.47H175.8a1.46,1.46,0,0,0,1.45-1.47Z"/><path class="cls-3" d="M99.07,134.78a7.9,7.9,0,0,1-5.66-2.38l-26.9-27.29a8.53,8.53,0,0,1-1.19-10.76,7.94,7.94,0,0,1,12.19-1l21.56,21.88L141.13,72.5a8.06,8.06,0,1,1,11.62,11.17l-48,48.73A7.9,7.9,0,0,1,99.07,134.78Z"/></g></g></svg>